<svg xmlns="http://www.w3.org/2000/svg" width="800" height="1672" viewBox="0 0 800 1672" role="img" aria-labelledby="rv-title rv-desc">
  <title id="rv-title">Kander Review Flow</title>
  <desc id="rv-desc">Two stages preserve the four original roles and add optional composites. Stage one runs PM and QA, or PMQA (PM contract checks followed by QA quality checks). Stage two runs CSA/Hacker, or Security (CSA trust boundaries followed by Hacker exploit chains, deduplicated by root cause). Composites default to skip; enabling one requires its constituent roles to be skip. After security fixes, enabled QA or PMQA incrementally re-reviews; enabled PM also checks functional changes. Subsequent first-stage fixes that substantively change security code are incrementally checked by enabled security roles. Verified security findings require a user decision: fix, accept risk or stop. Only kanban security findings may time out after 15 minutes; timeout means neither PASS nor accepted risk.</desc>

  <defs>
    <linearGradient id="bg" x1="0" y1="0" x2="0" y2="1">
      <stop offset="0" stop-color="#fbfcfe"/>
      <stop offset="1" stop-color="#f1f4f9"/>
    </linearGradient>
    <filter id="card" x="-8%" y="-8%" width="116%" height="116%">
      <feDropShadow dx="0" dy="4" stdDeviation="7" flood-color="#0f172a" flood-opacity="0.06"/>
    </filter>
    <marker id="a-slate" markerWidth="12" markerHeight="12" refX="10" refY="6" orient="auto" markerUnits="userSpaceOnUse">
      <path d="M0,0 L12,6 L0,12 Z" fill="#94a3b8"/>
    </marker>
    <style>
      .s { font-family: -apple-system, BlinkMacSystemFont, "Segoe UI", Roboto, "Noto Sans", sans-serif; }
      .h1 { font-size: 38px; font-weight: 700; fill: #0f172a; }
      .h2 { font-size: 18px; fill: #64748b; }
      .tag { font-size: 15px; fill: #94a3b8; }
      .pt { font-size: 22px; font-weight: 700; fill: #0f172a; }
      .pn { font-size: 15px; fill: #64748b; }
      .bt { font-size: 16px; fill: #334155; }
      .num { font-size: 20px; font-weight: 700; fill: #ffffff; }
      .hl { font-family: "SFMono-Regular", "Cascadia Mono", "Noto Sans Mono", "DejaVu Sans Mono", monospace; font-size: 16px; font-weight: 700; fill: #6d28d9; }
      .panel { fill: #ffffff; stroke: #e6eaf0; stroke-width: 1.5; }
      .flow { fill: none; stroke: #94a3b8; stroke-width: 2.5; stroke-linecap: round; marker-end: url(#a-slate); }
    </style>
  </defs>

  <rect width="800" height="1672" fill="url(#bg)"/>

  <text x="48" y="64" class="s h1">Kander Review Flow</text>
  <text x="48" y="100" class="s h2">Allowlist hit → stage one → security stage → integrate</text>
  <text x="48" y="126" class="s tag">Single entry: kander review · Security selection sets CSA/Hacker to skip</text>
  <line x1="48" y1="150" x2="752" y2="150" stroke="#e2e8f0" stroke-width="1.5"/>

  <!-- trigger decision -->
  <rect x="48" y="176" width="704" height="168" rx="16" class="panel" filter="url(#card)"/>
  <rect x="80" y="200" width="40" height="40" rx="12" fill="#d97706"/>
  <text x="100" y="227" text-anchor="middle" class="s num">?</text>
  <text x="136" y="222" class="s pt">Does It Hit the Review Allowlist</text>
  <text x="136" y="248" class="s pn">Judged by the task's actual changes, not titles or labels</text>
  <line x1="80" y1="272" x2="720" y2="272" stroke="#eef1f6" stroke-width="1.5"/>
  <circle cx="90" cy="296" r="4" fill="#fbbf24"/>
  <text x="106" y="301" class="s bt">Hit → resolve the review stages and enter review</text>
  <circle cx="90" cy="322" r="4" fill="#fbbf24"/>
  <text x="106" y="327" class="s bt">Miss → state the change scope, then integrate; never skip silently</text>

  <path d="M400 344  V368" class="flow"/>

  <!-- 1 original or integrated primary roles -->
  <rect x="48" y="368" width="704" height="220" rx="16" class="panel" filter="url(#card)"/>
  <rect x="80" y="392" width="40" height="40" rx="12" fill="#4f46e5"/>
  <text x="100" y="419" text-anchor="middle" class="s num">1</text>
  <text x="136" y="414" class="s pt">PM ∥ QA, or PMQA</text>
  <text x="136" y="440" class="s pn">PM: contract acceptance; QA: correctness, regressions and quality</text>
  <line x1="80" y1="464" x2="720" y2="464" stroke="#eef1f6" stroke-width="1.5"/>
  <circle cx="90" cy="488" r="4" fill="#a5b4fc"/>
  <text x="106" y="493" class="s bt">PMQA checks the PM contract first, then performs QA checks</text>
  <circle cx="90" cy="514" r="4" fill="#a5b4fc"/>
  <text x="106" y="519" class="s bt">Selecting PMQA requires PM and QA policies to be skip</text>
  <circle cx="90" cy="540" r="4" fill="#a5b4fc"/>
  <text x="106" y="545" class="s bt">Fix must-fix items; affected roles review changes incrementally</text>
  <circle cx="90" cy="566" r="4" fill="#a5b4fc"/>
  <text x="106" y="571" class="s bt">PMQA and Security default to skip; skipped roles are N/A</text>

  <path d="M400 588  V612" class="flow"/>

  <!-- 2 security roles -->
  <rect x="48" y="612" width="704" height="272" rx="16" class="panel" filter="url(#card)"/>
  <rect x="80" y="636" width="40" height="40" rx="12" fill="#7c3aed"/>
  <text x="100" y="663" text-anchor="middle" class="s num">2</text>
  <text x="136" y="658" class="s pt">CSA / Hacker, or Security</text>
  <text x="136" y="684" class="s pn">After stage one passes or is N/A; policies and triggers still apply</text>
  <line x1="80" y1="708" x2="720" y2="708" stroke="#eef1f6" stroke-width="1.5"/>
  <circle cx="90" cy="732" r="4" fill="#c4b5fd"/>
  <text x="106" y="737" class="s bt">Security: trust boundaries, then exploit chains; one item per root cause</text>
  <circle cx="90" cy="758" r="4" fill="#c4b5fd"/>
  <text x="106" y="763" class="s bt">Verified blocking / high / medium findings go to the user to decide</text>
  <circle cx="90" cy="784" r="4" fill="#c4b5fd"/>
  <text x="106" y="789" class="s bt">One of three: fix and re-review / accept the risk / stop integration</text>
  <circle cx="90" cy="810" r="4" fill="#c4b5fd"/>
  <text x="106" y="815" class="s bt">Kanban only: no decision for 15 min is ignored, not PASS</text>

  <text x="106" y="841" class="s bt">Enabled QA/PMQA checks fixes; PM checks behavior changes.</text>
  <text x="106" y="867" class="s bt">Enabled security roles re-check substantive security changes.</text>

  <path d="M400 884  V908" class="flow"/>

  <!-- 3 tiers -->
  <rect x="48" y="908" width="704" height="168" rx="16" class="panel" filter="url(#card)"/>
  <rect x="80" y="932" width="40" height="40" rx="12" fill="#0d9488"/>
  <text x="100" y="959" text-anchor="middle" class="s num">3</text>
  <text x="136" y="954" class="s pt">Tiers and the Must-Fix Bar</text>
  <text x="136" y="980" class="s pn">A missing tier is an invalid conclusion; the main agent fills it in</text>
  <line x1="80" y1="1004" x2="720" y2="1004" stroke="#eef1f6" stroke-width="1.5"/>
  <circle cx="90" cy="1028" r="4" fill="#5eead4"/>
  <text x="106" y="1033" class="s bt">blocking, high, medium → must fix</text>
  <circle cx="90" cy="1054" r="4" fill="#5eead4"/>
  <text x="106" y="1059" class="s bt">low, recommend, suggest → do not block integration</text>

  <path d="M400 1076 V1100" class="flow"/>

  <!-- 4 verification duty -->
  <rect x="48" y="1100" width="704" height="194" rx="16" class="panel" filter="url(#card)"/>
  <rect x="80" y="1124" width="40" height="40" rx="12" fill="#d97706"/>
  <text x="100" y="1151" text-anchor="middle" class="s num">4</text>
  <text x="136" y="1146" class="s pt">The Main Agent's Verification Duty</text>
  <text x="136" y="1172" class="s pn">Accepting or rejecting reviewer conclusions unverified is forbidden</text>
  <line x1="80" y1="1196" x2="720" y2="1196" stroke="#eef1f6" stroke-width="1.5"/>
  <circle cx="90" cy="1220" r="4" fill="#fbbf24"/>
  <text x="106" y="1225" class="s bt">Valid → handle by tier; fix and commit must-fix items</text>
  <circle cx="90" cy="1246" r="4" fill="#fbbf24"/>
  <text x="106" y="1251" class="s bt">Invalid → record the basis: files, line numbers, or command output</text>
  <circle cx="90" cy="1272" r="4" fill="#fbbf24"/>
  <text x="106" y="1277" class="s bt">Unverifiable → hand to the user; never treat as invalid</text>

  <path d="M400 1294 V1318" class="flow"/>

  <!-- 5 Reviewer -->
  <rect x="48" y="1318" width="704" height="194" rx="16" class="panel" filter="url(#card)"/>
  <rect x="80" y="1342" width="40" height="40" rx="12" fill="#4f46e5"/>
  <text x="100" y="1369" text-anchor="middle" class="s num">5</text>
  <text x="136" y="1364" class="s pt">Reviewers and Isolation Boundaries</text>
  <text x="136" y="1390" class="s pn">Each role can use codex / claude / grok / cursor / pi</text>
  <line x1="80" y1="1414" x2="720" y2="1414" stroke="#eef1f6" stroke-width="1.5"/>
  <circle cx="90" cy="1438" r="4" fill="#a5b4fc"/>
  <text x="106" y="1443" class="s bt">Codex / Claude / Grok use read-only isolation</text>
  <circle cx="90" cy="1464" r="4" fill="#a5b4fc"/>
  <text x="106" y="1469" class="s bt">Cursor uses prompts and post-hoc worktree checks, no upfront blocking</text>
  <circle cx="90" cy="1490" r="4" fill="#a5b4fc"/>
  <text x="106" y="1495" class="s bt">Reruns keep the same reviewer; bypassing <tspan class="hl">kander review</tspan> is forbidden</text>

  <path d="M400 1512 V1536" class="flow"/>

  <!-- passed -->
  <rect x="48" y="1536" width="704" height="88" rx="16" fill="#eefaf5" stroke="#a7e0cd" stroke-width="1.5"/>
  <circle cx="96" cy="1580" r="18" fill="#059669"/>
  <path d="M88 1580L94 1586L105 1573" fill="none" stroke="#ffffff" stroke-width="3" stroke-linecap="round" stroke-linejoin="round"/>
  <text x="130" y="1574" class="s" font-size="18" font-weight="700" fill="#064e3b">Review Passed</text>
  <text x="130" y="1602" class="s" font-size="15" fill="#3f6b5c">Show all unhandled items first, then proceed to integration and cleanup</text>
</svg>
